<svg viewBox="0 0 24 24" fill="none" xmlns="http://www.w3.org/2000/svg"><path d="M2 6a4 4 0 014-4h12a4 4 0 014 4v12a4 4 0 01-4 4H6a4 4 0 01-4-4V6z" fill="#F6F6F6"/><path fill-rule="evenodd" clip-rule="evenodd" d="M13.963 7.92c.44-.52.66-1.08.66-1.68 0-.08-.004-.16-.013-.24a2.554 2.554 0 00-.975.275c-.345.17-.63.381-.853.637-.448.504-.7 1.12-.7 1.696 0 .08.005.156.014.228.695.056 1.337-.3 1.867-.917zm2.34 8.592a6.511 6.511 0 00.861-1.716 2.748 2.748 0 01-.835-.546c-.55-.506-.829-1.143-.837-1.908-.009-.984.44-1.75 1.348-2.297-.507-.717-1.27-1.115-2.285-1.196-.374-.032-.832.048-1.374.242-.573.21-.91.314-1.01.314-.134 0-.438-.09-.912-.266-.475-.177-.858-.266-1.15-.266a2.969 2.969 0 00-1.485.417 3.07 3.07 0 00-1.1 1.105c-.35.581-.524 1.275-.524 2.08 0 .701.13 1.427.388 2.175.242.694.55 1.302.925 1.826.349.491.64.838.874 1.04.365.338.73.499 1.098.483.241-.008.557-.09.95-.248a2.956 2.956 0 011.098-.235c.325 0 .68.078 1.068.235.385.158.717.236.992.236.383-.01.74-.166 1.074-.47.215-.187.494-.521.836-1.005z" fill="#202738"/></svg>
