<svg viewBox="0 0 24 24" fill="none" xmlns="http://www.w3.org/2000/svg"><path fill-rule="evenodd" clip-rule="evenodd" d="M.784 3.154h13.433c.285.334.504.725.637 1.154H.147c.134-.429.352-.82.637-1.154zM0 5.462h15v1.154H0V5.462zM15 7.77H0v1.153h15V7.77zM0 10.077h15v1.154H0v-1.154zm15 2.308H0v1.154h15v-1.154zM.147 14.693h14.707c-.133.429-.352.82-.637 1.154H.784a3.274 3.274 0 01-.637-1.154z" fill="#F5F5F5"/><path fill-rule="evenodd" clip-rule="evenodd" d="M11.719 2H3.28c-1 0-1.896.448-2.498 1.154h13.434A3.274 3.274 0 0011.719 2zM15 6.615H0V7.77h15V6.615zm-.147-2.307c.096.308.147.635.147.974v.18H0v-.18c0-.34.051-.666.147-.974h14.706zM15 8.923H0v1.154h15V8.923zm0 4.616v.18c0 .34-.051.666-.147.974H.147A3.28 3.28 0 010 13.719v-.18h15zm-.783 2.307H.783A3.274 3.274 0 003.281 17h8.438c1 0 1.896-.448 2.498-1.154zM0 11.231h15v1.154H0V11.23z" fill="#FA4051"/><path d="M8 2H3.25C1.455 2 0 3.47 0 5.281v4.796h8V2z" fill="#1939C9"/><path fill-rule="evenodd" clip-rule="evenodd" d="M2.613 2.721l.062.187.197.002c.025 0 .036.032.015.047l-.158.117.06.188a.027.027 0 01-.041.03l-.16-.115-.16.114a.027.027 0 01-.04-.03l.058-.187-.158-.117a.026.026 0 01.016-.047l.196-.002.063-.187a.027.027 0 01.05 0zM.87 3.262a.027.027 0 00.041.03l.16-.115.16.115a.027.027 0 00.04-.03l-.058-.187.158-.117a.027.027 0 00-.016-.048l-.196-.002-.034-.1a3.297 3.297 0 00-.241.233l.046.034-.06.187zm.226 1.016l.063.187.196.001c.026 0 .036.033.016.048l-.158.117.059.187a.027.027 0 01-.04.03l-.16-.115-.16.115a.027.027 0 01-.042-.03l.06-.187-.158-.117a.027.027 0 01.015-.048l.197-.001.062-.187a.027.027 0 01.05 0zM1.16 6.19l-.063-.186a.027.027 0 00-.05 0l-.062.186-.197.002a.027.027 0 00-.015.048l.158.117-.06.187a.027.027 0 00.041.03l.16-.115.16.115a.027.027 0 00.041-.03l-.06-.187.159-.117a.027.027 0 00-.016-.048L1.16 6.19zm-.063 1.4l.063.187.196.002c.026 0 .036.032.016.047l-.158.117.059.188a.027.027 0 01-.04.03l-.16-.115-.16.114a.027.027 0 01-.042-.03l.06-.187-.158-.117a.027.027 0 01.015-.047l.197-.002.062-.187a.027.027 0 01.05 0zm.063 1.63l-.063-.187a.027.027 0 00-.05 0l-.062.187-.197.002a.027.027 0 00-.015.047l.158.117-.06.188a.027.027 0 00.041.03l.16-.115.16.114a.027.027 0 00.041-.03l-.06-.187.159-.117a.027.027 0 00-.016-.047L1.16 9.22zm.694-5.762l.062.186.197.002c.026 0 .036.032.016.048l-.159.116.06.188a.027.027 0 01-.041.03l-.16-.115-.16.115a.027.027 0 01-.04-.03l.059-.188-.159-.116a.026.026 0 01.016-.048l.197-.002.062-.186a.027.027 0 01.05 0zm.062 1.913l-.062-.187a.027.027 0 00-.05 0l-.062.187-.197.001a.027.027 0 00-.016.048l.159.117-.06.187a.027.027 0 00.041.03l.16-.115.16.115a.027.027 0 00.04-.03l-.059-.187.159-.117a.027.027 0 00-.016-.048l-.197-.002zm-.062 1.453l.062.187.197.001c.026 0 .036.033.016.048l-.159.117.06.188a.027.027 0 01-.04.03l-.161-.115-.16.114a.027.027 0 01-.04-.03l.059-.187-.159-.117a.027.027 0 01.016-.048l.197-.001.062-.187a.027.027 0 01.05 0zm.062 1.66L1.853 8.3a.027.027 0 00-.05 0l-.062.186-.197.002a.027.027 0 00-.016.048l.159.116-.06.188a.027.027 0 00.041.03l.16-.115.16.115a.027.027 0 00.04-.03l-.059-.188.159-.116a.027.027 0 00-.016-.048l-.197-.002zm.76-4.02l-.062-.187a.027.027 0 00-.05 0l-.063.187-.196.001a.027.027 0 00-.016.048l.158.117-.059.187a.027.027 0 00.04.03l.16-.115.16.115a.027.027 0 00.042-.03l-.06-.187.158-.117a.027.027 0 00-.015-.048l-.197-.001zm-.062 1.54l.062.186.197.002c.025 0 .036.033.015.048l-.158.117.06.187a.027.027 0 01-.041.03l-.16-.115-.16.115a.027.027 0 01-.04-.03l.058-.187-.158-.117a.027.027 0 01.016-.048L2.5 6.19l.063-.186a.027.027 0 01.05 0zm.062 1.773l-.062-.187a.027.027 0 00-.05 0l-.063.187-.196.002a.027.027 0 00-.016.047l.158.117-.059.188a.027.027 0 00.04.03l.16-.115.16.114a.027.027 0 00.042-.03l-.06-.187.158-.117a.027.027 0 00-.015-.047l-.197-.002zm-.062 1.256l.062.187.197.002c.025 0 .036.032.015.047l-.158.117.06.188a.027.027 0 01-.041.03l-.16-.115-.16.114a.027.027 0 01-.04-.03l.058-.187-.158-.117a.027.027 0 01.016-.047L2.5 9.22l.063-.187a.027.027 0 01.05 0zm.818-5.389L3.37 3.46a.027.027 0 00-.05 0l-.063.186-.196.002a.027.027 0 00-.016.048l.158.116-.06.188a.027.027 0 00.042.03l.16-.115.16.115a.027.027 0 00.04-.03l-.059-.188.158-.116a.026.026 0 00-.015-.048l-.197-.002zm-.062 1.54l.062.187.197.001c.025 0 .036.033.015.048l-.158.117.06.187a.027.027 0 01-.041.03l-.16-.115-.16.115a.027.027 0 01-.041-.03l.06-.187-.159-.117a.027.027 0 01.016-.048l.196-.002.062-.186a.027.027 0 01.05 0zm.062 1.827l-.062-.187c-.008-.024-.042-.024-.05 0l-.063.187-.196.001a.027.027 0 00-.016.048l.158.117-.06.188a.027.027 0 00.042.03l.16-.115.16.114a.027.027 0 00.04-.03l-.059-.187.158-.117a.027.027 0 00-.015-.048l-.197-.001zM3.37 8.299l.062.186.197.002c.025 0 .036.032.015.048l-.158.116.06.188a.027.027 0 01-.041.03l-.16-.115-.16.115a.027.027 0 01-.041-.03l.06-.188-.159-.116a.027.027 0 01.016-.048l.196-.002.062-.186a.027.027 0 01.05 0zm.822-5.39l-.062-.188a.027.027 0 00-.05 0l-.063.187-.197.002a.026.026 0 00-.015.047l.158.117-.06.188a.027.027 0 00.041.03l.16-.115.16.114a.027.027 0 00.041-.03l-.06-.187.16-.117a.026.026 0 00-.016-.047l-.197-.002zm-.062 1.369l.062.187.197.001c.025 0 .036.033.015.048l-.158.117.06.187a.027.027 0 01-.042.03l-.16-.115-.16.115a.027.027 0 01-.04-.03l.059-.187-.158-.117a.027.027 0 01.015-.048l.197-.002.062-.186a.027.027 0 01.05 0zM4.19 6.19l-.062-.186a.027.027 0 00-.05 0l-.063.186-.197.002a.027.027 0 00-.015.048l.158.117-.06.187a.027.027 0 00.041.03l.16-.115.16.115a.027.027 0 00.041-.03l-.06-.187.16-.117a.027.027 0 00-.016-.048L4.19 6.19zm-.062 1.4l.062.187.197.002c.025 0 .036.032.015.047l-.158.117.06.188a.027.027 0 01-.042.03l-.16-.115-.16.114a.027.027 0 01-.04-.03l.059-.187-.158-.117a.027.027 0 01.015-.047l.197-.002.062-.187a.027.027 0 01.05 0zm.062 1.63l-.062-.187a.027.027 0 00-.05 0l-.063.187-.197.002a.027.027 0 00-.015.047l.158.117-.06.188a.027.027 0 00.041.03l.16-.115.16.114a.027.027 0 00.041-.03l-.06-.187.16-.117a.027.027 0 00-.016-.047L4.19 9.22zm.694-5.762l.063.186.196.002c.026 0 .036.032.016.048l-.158.116L5.06 4a.027.027 0 01-.04.03l-.16-.115-.16.115a.027.027 0 01-.041-.03l.059-.188-.158-.116a.027.027 0 01.015-.048l.197-.002.062-.186c.008-.025.042-.025.05 0zm.063 1.913l-.063-.187c-.008-.024-.042-.024-.05 0l-.062.187-.197.001a.027.027 0 00-.015.048l.158.117-.06.187a.027.027 0 00.041.03l.16-.115.16.115a.027.027 0 00.041-.03l-.06-.187.159-.117a.027.027 0 00-.016-.048l-.196-.002zm-.063 1.453l.063.187.196.001c.026 0 .036.033.016.048l-.158.117.059.188a.027.027 0 01-.04.03l-.16-.115-.16.114a.027.027 0 01-.041-.03l.059-.187-.158-.117a.027.027 0 01.015-.048l.197-.001.062-.187c.008-.024.042-.024.05 0zm.063 1.66L4.885 8.3c-.008-.025-.042-.025-.05 0l-.062.186-.197.002a.027.027 0 00-.015.048l.158.116-.06.188a.027.027 0 00.041.03l.16-.115.16.115a.027.027 0 00.041-.03l-.06-.188.159-.116a.027.027 0 00-.016-.048l-.196-.002zm.695-5.764l.063.187.196.002c.026 0 .036.032.016.047l-.158.117.059.188a.027.027 0 01-.04.03l-.16-.115-.16.114a.027.027 0 01-.042-.03l.06-.187-.159-.117a.026.026 0 01.016-.047l.197-.002.062-.187c.008-.024.042-.024.05 0zm.063 1.744l-.063-.187a.027.027 0 00-.05 0l-.062.187-.197.001a.027.027 0 00-.016.048l.159.117-.06.187a.027.027 0 00.041.03l.16-.115.16.115a.027.027 0 00.04-.03l-.058-.187.158-.117a.027.027 0 00-.016-.048l-.196-.001zm-.063 1.54l.063.186.196.002c.026 0 .036.033.016.048l-.158.117.059.187a.027.027 0 01-.04.03l-.16-.115-.16.115a.027.027 0 01-.042-.03l.06-.187-.159-.117a.027.027 0 01.016-.048l.197-.002.062-.186a.027.027 0 01.05 0zm.063 1.773l-.063-.187a.027.027 0 00-.05 0l-.062.187-.197.002a.027.027 0 00-.016.047l.159.117-.06.188a.027.027 0 00.041.03l.16-.115.16.114a.027.027 0 00.04-.03l-.058-.187.158-.117a.027.027 0 00-.016-.047l-.196-.002zm-.063 1.256l.063.187.196.002c.026 0 .036.032.016.047l-.158.117.059.188a.027.027 0 01-.04.03l-.16-.115-.16.114a.027.027 0 01-.042-.03l.06-.187-.159-.117a.027.027 0 01.016-.047l.197-.002.062-.187a.027.027 0 01.05 0zm.818-5.389L6.4 3.46a.027.027 0 00-.05 0l-.062.186-.197.002a.027.027 0 00-.016.048l.159.116-.06.188a.027.027 0 00.04.03l.161-.115.16.115a.027.027 0 00.04-.03l-.059-.188.159-.116a.026.026 0 00-.016-.048l-.197-.002zM6.4 5.185l.062.187.197.001c.026 0 .036.033.016.048l-.159.117.06.187a.027.027 0 01-.041.03l-.16-.115-.16.115a.027.027 0 01-.04-.03l.059-.187-.159-.117a.027.027 0 01.016-.048l.197-.002.062-.186a.027.027 0 01.05 0zm.062 1.827L6.4 6.825a.027.027 0 00-.05 0l-.062.187-.197.001a.027.027 0 00-.016.048l.159.117-.06.188a.027.027 0 00.04.03l.161-.115.16.114a.027.027 0 00.04-.03l-.059-.187.159-.117a.027.027 0 00-.016-.048l-.197-.001zM6.4 8.299l.062.186.197.002c.026 0 .036.032.016.048l-.159.116.06.188a.027.027 0 01-.041.03l-.16-.115-.16.115a.027.027 0 01-.04-.03l.059-.188-.159-.116a.027.027 0 01.016-.048l.197-.002.062-.186a.027.027 0 01.05 0zm.821-5.39l-.062-.188c-.008-.024-.042-.024-.05 0l-.063.187-.196.002a.026.026 0 00-.016.047l.158.117-.059.188a.027.027 0 00.04.03l.16-.115.16.114a.027.027 0 00.042-.03l-.06-.187.158-.117a.027.027 0 00-.015-.047l-.197-.002zm-.062 1.369l.062.187.197.001c.025 0 .036.033.015.048l-.158.117.06.187a.027.027 0 01-.041.03l-.16-.115-.16.115a.027.027 0 01-.041-.03l.06-.187-.159-.117a.027.027 0 01.016-.048l.196-.001.063-.187a.027.027 0 01.05 0zM7.22 6.19l-.062-.186a.027.027 0 00-.05 0l-.063.186-.196.002a.027.027 0 00-.016.048l.158.117-.059.187a.027.027 0 00.04.03l.16-.115.16.115a.027.027 0 00.042-.03l-.06-.187.158-.117a.027.027 0 00-.015-.048L7.22 6.19zm-.062 1.4l.062.187.197.002c.025 0 .036.032.015.047l-.158.117.06.188a.027.027 0 01-.041.03l-.16-.115-.16.114a.027.027 0 01-.041-.03l.06-.187-.159-.117a.027.027 0 01.016-.047l.196-.002.063-.187a.027.027 0 01.05 0zm.062 1.63l-.062-.187a.027.027 0 00-.05 0l-.063.187-.196.002a.027.027 0 00-.016.047l.158.117-.059.188a.027.027 0 00.04.03l.16-.115.16.114a.027.027 0 00.042-.03l-.06-.187.158-.117a.027.027 0 00-.015-.047L7.22 9.22z" fill="#F5F5F5"/><path d="M20.719 7H12.28A3.281 3.281 0 009 10.281v8.438A3.281 3.281 0 0012.281 22h8.438A3.281 3.281 0 0024 18.719V10.28A3.281 3.281 0 0020.719 7z" fill="#F6F6F6"/><path d="M16.5 18a3.5 3.5 0 100-7 3.5 3.5 0 000 7z" fill="#FB4B4E"/></svg>
